<svg width="70" height="52" viewBox="0 0 70 52" fill="none" xmlns="http://www.w3.org/2000/svg">
<path d="M32.1232 16.0663V28.2545H27.1371V16.0663H32.1232Z" fill="#DE2632"/>
<path d="M39.3253 16.0663V28.2545H34.3392V16.0663H39.3253Z" fill="#DE2632"/>
<path d="M46.5275 16.0663V28.2545H41.5414V16.0663H46.5275Z" fill="#DE2632"/>
<path d="M27.1371 12.7422V0H32.1232V12.7422H27.1371Z" fill="#DE2632"/>
<path d="M34.3392 12.7422V0H39.3253V12.7422H34.3392Z" fill="#DE2632"/>
<path d="M41.5414 12.7422V0H46.5275V12.7422H41.5414Z" fill="#DE2632"/>
<path d="M0.658719 51.6366C0.46186 51.6366 0.302859 51.6063 0.181716 51.5457C0.0605719 51.5003 0 51.4321 0 51.3413C0 51.1899 0.242287 51.0687 0.726862 50.9779C1.30229 50.8719 1.6733 50.6977 1.83987 50.4554C2.02159 50.2131 2.11244 49.8194 2.11244 49.2743V39.0073C2.11244 38.4773 2.05187 38.1063 1.93073 37.8943C1.82473 37.6672 1.48401 37.5006 0.908578 37.3946C0.40886 37.3038 0.159001 37.1675 0.159001 36.9858C0.159001 36.8949 0.212001 36.8268 0.318002 36.7813C0.424003 36.7208 0.590575 36.6905 0.81772 36.6905C1.22658 36.6905 1.54458 36.698 1.77173 36.7132C1.99887 36.7283 2.21087 36.7435 2.40773 36.7586C2.60459 36.7586 2.85445 36.7586 3.15731 36.7586C3.47531 36.7586 3.73274 36.7586 3.9296 36.7586C4.1416 36.7435 4.36117 36.7283 4.58832 36.7132C4.8306 36.698 5.15618 36.6905 5.56504 36.6905C6.00418 36.6905 6.22376 36.7889 6.22376 36.9858C6.22376 37.0918 6.16318 37.175 6.04204 37.2356C5.9209 37.2962 5.73161 37.3492 5.47418 37.3946C4.91389 37.5006 4.5126 37.6899 4.27031 37.9625C4.04317 38.2199 3.9296 38.5682 3.9296 39.0073V43.4821C3.9296 43.5729 3.96746 43.6335 4.04317 43.6638C4.11888 43.6789 4.18703 43.6865 4.2476 43.6865H12.6747C12.7807 43.6865 12.8337 43.5957 12.8337 43.4139V38.9846C12.8337 38.5758 12.7277 38.2351 12.5157 37.9625C12.3037 37.6899 11.9099 37.5006 11.3345 37.3946C11.0771 37.3492 10.8878 37.2962 10.7666 37.2356C10.6455 37.175 10.5849 37.0918 10.5849 36.9858C10.5849 36.7889 10.8045 36.6905 11.2436 36.6905C11.6525 36.6905 11.9857 36.698 12.2431 36.7132C12.5157 36.7283 12.7731 36.7435 13.0154 36.7586C13.2577 36.7586 13.5454 36.7586 13.8785 36.7586C14.1511 36.7586 14.3631 36.7586 14.5145 36.7586C14.666 36.7435 14.8401 36.7283 15.037 36.7132C15.2338 36.698 15.5367 36.6905 15.9455 36.6905C16.1575 36.6905 16.3165 36.7208 16.4225 36.7813C16.5437 36.8268 16.6043 36.8949 16.6043 36.9858C16.6043 37.1675 16.3544 37.3038 15.8547 37.3946C15.2944 37.5006 14.9537 37.6823 14.8325 37.9398C14.7114 38.1972 14.6508 38.5455 14.6508 38.9846V49.2516C14.6508 49.8118 14.719 50.2131 14.8552 50.4554C15.0067 50.6977 15.3625 50.8719 15.9228 50.9779C16.4074 51.0687 16.6497 51.1899 16.6497 51.3413C16.6497 51.4321 16.5891 51.5003 16.468 51.5457C16.3468 51.6063 16.1878 51.6366 15.991 51.6366C15.5821 51.6366 15.2641 51.6214 15.037 51.5911C14.8098 51.576 14.5978 51.5609 14.401 51.5457C14.2041 51.5306 13.9467 51.523 13.6287 51.523C13.3107 51.523 13.0457 51.5306 12.8337 51.5457C12.6368 51.5609 12.4172 51.576 12.1749 51.5911C11.9327 51.6214 11.6071 51.6366 11.1982 51.6366C11.0014 51.6366 10.8424 51.6063 10.7212 51.5457C10.6001 51.5003 10.5395 51.4321 10.5395 51.3413C10.5395 51.2353 10.5925 51.1596 10.6985 51.1141C10.8196 51.0687 11.0089 51.0233 11.2664 50.9779C11.7509 50.887 12.1295 50.7129 12.4021 50.4554C12.6898 50.1828 12.8337 49.8043 12.8337 49.3197V44.8904C12.8337 44.8147 12.8337 44.7389 12.8337 44.6632C12.8337 44.5875 12.7958 44.5497 12.7201 44.5497H4.04317C3.96746 44.5497 3.9296 44.6329 3.9296 44.7995V49.1153C3.9296 49.5847 4.10374 49.9936 4.45203 50.3419C4.80032 50.675 5.23189 50.887 5.74675 50.9779C6.00418 51.0233 6.1859 51.0687 6.2919 51.1141C6.41304 51.1596 6.47362 51.2353 6.47362 51.3413C6.47362 51.4321 6.41304 51.5003 6.2919 51.5457C6.17076 51.6063 6.01176 51.6366 5.8149 51.6366C5.40604 51.6366 5.06532 51.6214 4.79275 51.5911C4.53532 51.576 4.28546 51.5609 4.04317 51.5457C3.80088 51.5306 3.5056 51.523 3.15731 51.523C2.8393 51.523 2.56673 51.5306 2.33959 51.5457C2.12759 51.5609 1.89287 51.576 1.63544 51.5911C1.39315 51.6214 1.06758 51.6366 0.658719 51.6366Z" fill="#DE2632"/>
<path d="M19.8427 51.841C19.5701 51.841 19.2899 51.735 19.0022 51.523C18.7297 51.311 18.4949 51.0536 18.2981 50.7507C18.1164 50.4479 18.0255 50.1601 18.0255 49.8876C18.0255 49.403 18.1542 49.0244 18.4116 48.7518C18.6691 48.4793 19.0779 48.2294 19.6382 48.0023L21.9551 47.0483C22.258 46.9271 22.4321 46.8211 22.4775 46.7303C22.5381 46.6394 22.576 46.4425 22.5911 46.1397L22.6365 44.686C22.6517 44.2922 22.5381 43.9515 22.2958 43.6638C22.0687 43.3761 21.7355 43.2322 21.2964 43.2322C21.0692 43.2322 20.8421 43.2701 20.615 43.3458C20.3878 43.4215 20.1985 43.5199 20.0471 43.6411C19.9562 43.7017 19.8957 43.7925 19.8654 43.9137C19.8351 44.0348 19.8199 44.1635 19.8199 44.2998C19.8199 44.3604 19.8199 44.4285 19.8199 44.5042C19.8351 44.58 19.8427 44.6481 19.8427 44.7087C19.8427 44.7844 19.7442 44.8904 19.5474 45.0267C19.3657 45.1478 19.1537 45.2614 18.9114 45.3674C18.6842 45.4582 18.4949 45.5037 18.3435 45.5037C18.2678 45.5037 18.2072 45.4885 18.1618 45.4582C18.1164 45.4128 18.0936 45.3598 18.0936 45.2992C18.0936 45.057 18.1694 44.7995 18.3208 44.527C18.4874 44.2392 18.7145 43.9742 19.0022 43.7319C19.3505 43.4139 19.7291 43.1338 20.1379 42.8915C20.5468 42.6492 20.9481 42.4599 21.3418 42.3237C21.7355 42.1874 22.0838 42.1192 22.3867 42.1192C22.9318 42.1192 23.3785 42.3161 23.7268 42.7098C24.0903 43.0884 24.2644 43.5654 24.2493 44.1408L24.1357 49.5923C24.1205 49.9103 24.1887 50.1677 24.3401 50.3646C24.5067 50.5614 24.7111 50.6599 24.9534 50.6599C25.332 50.6599 25.6121 50.5766 25.7938 50.41C25.8696 50.3343 25.9301 50.2964 25.9756 50.2964C26.0513 50.2964 26.1118 50.3191 26.1573 50.3646C26.2027 50.41 26.2254 50.4706 26.2254 50.5463C26.2254 50.7129 26.1421 50.8794 25.9756 51.046C25.7333 51.2883 25.4683 51.4776 25.1806 51.6139C24.908 51.7653 24.6505 51.841 24.4083 51.841C23.7117 51.841 23.159 51.4473 22.7501 50.6599H22.682C22.1822 51.0687 21.7052 51.364 21.251 51.5457C20.7967 51.7426 20.3272 51.841 19.8427 51.841ZM20.9102 50.7507C21.2131 50.7507 21.4705 50.7053 21.6825 50.6144C21.8945 50.5084 22.0838 50.3721 22.2504 50.2056C22.3261 50.1299 22.3867 50.0314 22.4321 49.9103C22.4927 49.774 22.5305 49.562 22.5457 49.2743L22.5911 48.1613C22.6063 47.9947 22.5987 47.8735 22.5684 47.7978C22.5381 47.7221 22.4775 47.6843 22.3867 47.6843C22.3564 47.6843 22.3034 47.6918 22.2277 47.707C22.152 47.7221 22.0535 47.7524 21.9324 47.7978C21.1298 48.0855 20.5695 48.3884 20.2515 48.7064C19.9487 49.0093 19.7972 49.2894 19.7972 49.5468C19.7972 49.9406 19.9108 50.2434 20.1379 50.4554C20.3802 50.6523 20.6377 50.7507 20.9102 50.7507Z" fill="#DE2632"/>
<path d="M27.0071 51.5911C26.8557 51.5911 26.7421 51.5684 26.6664 51.523C26.5907 51.4927 26.5528 51.4321 26.5528 51.3413C26.5528 51.2201 26.5983 51.1444 26.6891 51.1141C26.78 51.0687 26.9087 51.0233 27.0753 50.9779C27.363 50.9021 27.575 50.7961 27.7113 50.6599C27.8627 50.5084 27.9384 50.3267 27.9384 50.1147V45.2311C27.9384 44.8222 27.8778 44.4664 27.7567 44.1635C27.6355 43.8607 27.3857 43.6714 27.0071 43.5957C26.9465 43.5805 26.8935 43.5427 26.8481 43.4821C26.8027 43.4215 26.78 43.3609 26.78 43.3004C26.78 43.1489 26.8481 43.0581 26.9844 43.0278C27.3781 42.9067 27.787 42.7325 28.211 42.5054C28.6501 42.2631 28.9908 42.0662 29.2331 41.9148C29.324 41.8542 29.3921 41.8164 29.4376 41.8012C29.4981 41.7709 29.5436 41.7558 29.5738 41.7558C29.6496 41.7558 29.6874 41.8088 29.6874 41.9148C29.6874 41.9602 29.6798 42.0738 29.6647 42.2555C29.6647 42.4372 29.6571 42.6492 29.642 42.8915C29.642 43.1338 29.6344 43.3761 29.6193 43.6184C29.6193 43.6487 29.6344 43.6638 29.6647 43.6638C29.907 43.3609 30.172 43.0959 30.4597 42.8688C30.7626 42.6417 31.0654 42.4599 31.3683 42.3237C31.6863 42.1874 31.9891 42.1192 32.2769 42.1192C32.5949 42.1192 32.8523 42.1874 33.0492 42.3237C33.2612 42.4599 33.3672 42.6341 33.3672 42.8461C33.3672 42.9975 33.3217 43.1641 33.2309 43.3458C33.1552 43.5275 33.0492 43.6865 32.9129 43.8228C32.7766 43.9591 32.6327 44.0272 32.4813 44.0272C32.3904 44.0272 32.292 44.0121 32.186 43.9818C32.08 43.9364 31.9664 43.8834 31.8453 43.8228C31.7241 43.7774 31.603 43.7319 31.4819 43.6865C31.3607 43.6411 31.2396 43.6184 31.1184 43.6184C30.755 43.6184 30.3991 43.7471 30.0508 44.0045C29.7177 44.262 29.5511 44.7692 29.5511 45.5264V50.1147C29.5511 50.3116 29.6571 50.4781 29.8691 50.6144C30.0811 50.7356 30.3764 50.8567 30.755 50.9779C30.9216 51.0233 31.0503 51.0687 31.1411 51.1141C31.232 51.1596 31.2774 51.2353 31.2774 51.3413C31.2774 51.5079 31.126 51.5911 30.8231 51.5911C30.3689 51.5911 30.0206 51.5684 29.7783 51.523C29.5511 51.4927 29.2407 51.4776 28.847 51.4776C28.5896 51.4776 28.3776 51.4851 28.211 51.5003C28.0595 51.5154 27.893 51.5306 27.7113 51.5457C27.5447 51.576 27.31 51.5911 27.0071 51.5911Z" fill="#DE2632"/>
<path d="M37.9778 52C37.9173 52 37.8415 51.8789 37.7507 51.6366C37.6598 51.4094 37.5993 51.2429 37.569 51.1369C37.463 50.8794 37.3645 50.6144 37.2737 50.3419C37.1828 50.0541 37.092 49.7891 37.0011 49.5468C36.668 48.608 36.3045 47.6918 35.9108 46.7984C35.5322 45.8898 35.1612 44.9737 34.7978 44.0499C34.6918 43.7774 34.5252 43.5351 34.2981 43.3231C34.0861 43.0959 33.8665 42.9521 33.6394 42.8915C33.5182 42.8461 33.4198 42.8007 33.3441 42.7552C33.2684 42.7098 33.2305 42.6341 33.2305 42.5281C33.2305 42.4372 33.2835 42.3842 33.3895 42.3691C33.5107 42.3388 33.6091 42.3237 33.6848 42.3237C33.9877 42.3237 34.2072 42.3312 34.3435 42.3464C34.4798 42.3615 34.6161 42.3842 34.7524 42.4145C34.8887 42.4297 35.0855 42.4372 35.343 42.4372C35.6155 42.4372 35.82 42.4297 35.9562 42.4145C36.0925 42.3842 36.2364 42.3615 36.3878 42.3464C36.5393 42.3312 36.7588 42.3237 37.0465 42.3237C37.1223 42.3237 37.2131 42.3388 37.3191 42.3691C37.4403 42.3842 37.5008 42.4372 37.5008 42.5281C37.5008 42.6341 37.4478 42.7174 37.3418 42.7779C37.2358 42.8385 37.1147 42.8915 36.9784 42.9369C36.827 42.9975 36.7134 43.1187 36.6377 43.3004C36.562 43.4669 36.5241 43.6562 36.5241 43.8682C36.5241 43.9742 36.5317 44.0802 36.5468 44.1862C36.562 44.2922 36.5847 44.3907 36.615 44.4815L38.4094 49.2516C38.4245 49.2667 38.4321 49.2743 38.4321 49.2743C38.4473 49.2743 38.4624 49.2667 38.4776 49.2516L40.2038 44.8222C40.2644 44.6708 40.3098 44.5118 40.3401 44.3452C40.3704 44.1635 40.3856 44.0121 40.3856 43.8909C40.3856 43.5881 40.3401 43.3761 40.2493 43.2549C40.1584 43.1187 40.007 43.0127 39.795 42.9369C39.5981 42.8612 39.4618 42.8007 39.3861 42.7552C39.3104 42.7098 39.2726 42.6341 39.2726 42.5281C39.2726 42.4372 39.318 42.3842 39.4088 42.3691C39.5148 42.3388 39.6208 42.3237 39.7268 42.3237C39.8934 42.3237 40.113 42.3464 40.3856 42.3918C40.6581 42.4221 40.9913 42.4372 41.385 42.4372C41.7787 42.4372 42.0437 42.4221 42.18 42.3918C42.3314 42.3464 42.5131 42.3237 42.7252 42.3237C42.8463 42.3237 42.9523 42.3388 43.0432 42.3691C43.134 42.3842 43.1794 42.4372 43.1794 42.5281C43.1794 42.6947 43.0053 42.8309 42.657 42.9369C42.4299 42.9975 42.18 43.1717 41.9074 43.4594C41.6349 43.7471 41.4153 44.0802 41.2487 44.4588L39.477 48.7291C39.4467 48.7897 39.3861 48.9411 39.2953 49.1834C39.2044 49.4106 39.106 49.668 39 49.9557C38.894 50.2283 38.8031 50.4706 38.7274 50.6826C38.6517 50.8794 38.6138 50.9779 38.6138 50.9779C38.6138 50.9779 38.5836 51.0536 38.523 51.205C38.4624 51.3413 38.3943 51.4851 38.3185 51.6366C38.2428 51.8031 38.1747 51.9243 38.1141 52H37.9778Z" fill="#DE2632"/>
<path d="M45.0381 51.841C44.7655 51.841 44.4854 51.735 44.1977 51.523C43.9251 51.311 43.6904 51.0536 43.4935 50.7507C43.3118 50.4479 43.221 50.1601 43.221 49.8876C43.221 49.403 43.3497 49.0244 43.6071 48.7518C43.8645 48.4793 44.2734 48.2294 44.8337 48.0023L47.1506 47.0483C47.4534 46.9271 47.6276 46.8211 47.673 46.7303C47.7336 46.6394 47.7714 46.4425 47.7866 46.1397L47.832 44.686C47.8471 44.2922 47.7336 43.9515 47.4913 43.6638C47.2641 43.3761 46.931 43.2322 46.4918 43.2322C46.2647 43.2322 46.0376 43.2701 45.8104 43.3458C45.5833 43.4215 45.394 43.5199 45.2425 43.6411C45.1517 43.7017 45.0911 43.7925 45.0608 43.9137C45.0305 44.0348 45.0154 44.1635 45.0154 44.2998C45.0154 44.3604 45.0154 44.4285 45.0154 44.5042C45.0305 44.58 45.0381 44.6481 45.0381 44.7087C45.0381 44.7844 44.9397 44.8904 44.7428 45.0267C44.5611 45.1478 44.3491 45.2614 44.1068 45.3674C43.8797 45.4582 43.6904 45.5037 43.539 45.5037C43.4632 45.5037 43.4027 45.4885 43.3573 45.4582C43.3118 45.4128 43.2891 45.3598 43.2891 45.2992C43.2891 45.057 43.3648 44.7995 43.5162 44.527C43.6828 44.2392 43.91 43.9742 44.1977 43.7319C44.546 43.4139 44.9245 43.1338 45.3334 42.8915C45.7423 42.6492 46.1436 42.4599 46.5373 42.3237C46.931 42.1874 47.2793 42.1192 47.5821 42.1192C48.1273 42.1192 48.574 42.3161 48.9223 42.7098C49.2857 43.0884 49.4599 43.5654 49.4447 44.1408L49.3311 49.5923C49.316 49.9103 49.3841 50.1677 49.5356 50.3646C49.7021 50.5614 49.9066 50.6599 50.1489 50.6599C50.5274 50.6599 50.8076 50.5766 50.9893 50.41C51.065 50.3343 51.1256 50.2964 51.171 50.2964C51.2467 50.2964 51.3073 50.3191 51.3527 50.3646C51.3982 50.41 51.4209 50.4706 51.4209 50.5463C51.4209 50.7129 51.3376 50.8794 51.171 51.046C50.9287 51.2883 50.6637 51.4776 50.376 51.6139C50.1034 51.7653 49.846 51.841 49.6037 51.841C48.9071 51.841 48.3544 51.4473 47.9456 50.6599H47.8774C47.3777 51.0687 46.9007 51.364 46.4464 51.5457C45.9921 51.7426 45.5227 51.841 45.0381 51.841ZM46.1057 50.7507C46.4086 50.7507 46.666 50.7053 46.878 50.6144C47.09 50.5084 47.2793 50.3721 47.4458 50.2056C47.5216 50.1299 47.5821 50.0314 47.6276 49.9103C47.6881 49.774 47.726 49.562 47.7411 49.2743L47.7866 48.1613C47.8017 47.9947 47.7941 47.8735 47.7638 47.7978C47.7336 47.7221 47.673 47.6843 47.5821 47.6843C47.5518 47.6843 47.4988 47.6918 47.4231 47.707C47.3474 47.7221 47.249 47.7524 47.1278 47.7978C46.3253 48.0855 45.765 48.3884 45.447 48.7064C45.1441 49.0093 44.9927 49.2894 44.9927 49.5468C44.9927 49.9406 45.1063 50.2434 45.3334 50.4554C45.5757 50.6523 45.8331 50.7507 46.1057 50.7507Z" fill="#DE2632"/>
<path d="M52.2026 51.5911C52.0511 51.5911 51.9376 51.5684 51.8619 51.523C51.7861 51.4927 51.7483 51.4321 51.7483 51.3413C51.7483 51.2201 51.7937 51.1444 51.8846 51.1141C51.9754 51.0687 52.1041 51.0233 52.2707 50.9779C52.5584 50.9021 52.7704 50.7961 52.9067 50.6599C53.0581 50.5084 53.1339 50.3267 53.1339 50.1147V45.2311C53.1339 44.8222 53.0733 44.4664 52.9521 44.1635C52.831 43.8607 52.5811 43.6714 52.2026 43.5957C52.142 43.5805 52.089 43.5427 52.0436 43.4821C51.9981 43.4215 51.9754 43.3609 51.9754 43.3004C51.9754 43.1489 52.0436 43.0581 52.1799 43.0278C52.5736 42.9067 52.9824 42.7325 53.4064 42.5054C53.8456 42.2631 54.1863 42.0662 54.4286 41.9148C54.5194 41.8542 54.5876 41.8164 54.633 41.8012C54.6936 41.7709 54.739 41.7558 54.7693 41.7558C54.845 41.7558 54.8829 41.8088 54.8829 41.9148C54.8829 41.9602 54.8753 42.0738 54.8602 42.2555C54.8602 42.4372 54.8526 42.6492 54.8374 42.8915C54.8374 43.1338 54.8299 43.3761 54.8147 43.6184C54.8147 43.6487 54.8299 43.6638 54.8602 43.6638C55.1024 43.3609 55.3675 43.0959 55.6552 42.8688C55.958 42.6417 56.2609 42.4599 56.5637 42.3237C56.8817 42.1874 57.1846 42.1192 57.4723 42.1192C57.7903 42.1192 58.0478 42.1874 58.2446 42.3237C58.4566 42.4599 58.5626 42.6341 58.5626 42.8461C58.5626 42.9975 58.5172 43.1641 58.4263 43.3458C58.3506 43.5275 58.2446 43.6865 58.1083 43.8228C57.972 43.9591 57.8282 44.0272 57.6768 44.0272C57.5859 44.0272 57.4875 44.0121 57.3815 43.9818C57.2755 43.9364 57.1619 43.8834 57.0407 43.8228C56.9196 43.7774 56.7985 43.7319 56.6773 43.6865C56.5562 43.6411 56.435 43.6184 56.3139 43.6184C55.9505 43.6184 55.5946 43.7471 55.2463 44.0045C54.9132 44.262 54.7466 44.7692 54.7466 45.5264V50.1147C54.7466 50.3116 54.8526 50.4781 55.0646 50.6144C55.2766 50.7356 55.5719 50.8567 55.9505 50.9779C56.117 51.0233 56.2457 51.0687 56.3366 51.1141C56.4275 51.1596 56.4729 51.2353 56.4729 51.3413C56.4729 51.5079 56.3215 51.5911 56.0186 51.5911C55.5643 51.5911 55.216 51.5684 54.9737 51.523C54.7466 51.4927 54.4362 51.4776 54.0424 51.4776C53.785 51.4776 53.573 51.4851 53.4064 51.5003C53.255 51.5154 53.0884 51.5306 52.9067 51.5457C52.7401 51.576 52.5054 51.5911 52.2026 51.5911Z" fill="#DE2632"/>
<path d="M66.4215 51.9546C66.3912 51.9546 66.3382 51.9243 66.2625 51.8637C66.2019 51.8031 66.1716 51.7577 66.1716 51.7274C66.1716 51.576 66.1867 51.364 66.217 51.0914C66.2625 50.8037 66.2852 50.5614 66.2852 50.3646V50.2283C66.058 50.5766 65.6946 50.9324 65.1949 51.2959C64.6952 51.6593 64.0667 51.841 63.3096 51.841C62.4464 51.841 61.6969 51.6139 61.0608 51.1596C60.44 50.7053 59.9554 50.1223 59.6071 49.4106C59.274 48.6988 59.1074 47.9644 59.1074 47.2073C59.1074 46.329 59.3118 45.5037 59.7207 44.7314C60.1296 43.9591 60.7126 43.3307 61.4697 42.8461C62.242 42.3615 63.1581 42.1192 64.2182 42.1192C64.521 42.1192 64.8239 42.1495 65.1267 42.2101C65.4447 42.2555 65.687 42.3085 65.8536 42.3691C65.9899 42.4145 66.0883 42.4372 66.1489 42.4372C66.2549 42.4372 66.3079 42.2555 66.3079 41.8921V38.6666C66.3079 38.0458 66.2095 37.6293 66.0126 37.4173C65.8157 37.2053 65.5356 37.069 65.1722 37.0085C65.0359 36.9782 64.9677 36.8798 64.9677 36.7132C64.9677 36.5769 65.0283 36.486 65.1494 36.4406C65.8157 36.274 66.3382 36.115 66.7167 35.9636C67.0953 35.8122 67.3906 35.691 67.6026 35.6002C67.6632 35.5699 67.7162 35.5547 67.7616 35.5547C67.8222 35.5396 67.8676 35.532 67.8979 35.532C67.9888 35.532 68.0417 35.5775 68.0569 35.6683C68.0569 35.7592 68.0418 35.9182 68.0115 36.1453C67.9963 36.3573 67.9736 36.6753 67.9433 37.0993C67.913 37.5233 67.8979 38.0761 67.8979 38.7575V49.0244C67.8979 49.5393 67.9358 49.9178 68.0115 50.1601C68.0872 50.3873 68.2083 50.5009 68.3749 50.5009C68.4506 50.5009 68.5793 50.4933 68.761 50.4781C68.9579 50.463 69.1548 50.4479 69.3516 50.4327C69.6242 50.4176 69.7605 50.4857 69.7605 50.6371C69.7605 50.7431 69.7226 50.8416 69.6469 50.9324C69.5863 51.0081 69.5182 51.046 69.4425 51.046C69.0185 51.1066 68.602 51.1974 68.1932 51.3186C67.7843 51.4246 67.3149 51.5911 66.7849 51.8183C66.6637 51.8789 66.5805 51.9167 66.535 51.9319C66.5047 51.947 66.4669 51.9546 66.4215 51.9546ZM64.1273 50.6599C64.521 50.6599 64.9072 50.5614 65.2857 50.3646C65.6643 50.1526 65.9975 49.88 66.2852 49.5468L66.3079 45.4582C66.3079 45.0494 66.1867 44.6481 65.9445 44.2544C65.7173 43.8607 65.3917 43.5427 64.9677 43.3004C64.5589 43.0429 64.0743 42.9142 63.514 42.9142C63.1657 42.9142 62.772 43.0202 62.3329 43.2322C61.8937 43.4442 61.5151 43.8228 61.1971 44.368C60.8791 44.898 60.7201 45.6702 60.7201 46.6848C60.7201 47.548 60.8488 48.2446 61.1063 48.7746C61.3637 49.2894 61.6741 49.6831 62.0376 49.9557C62.4161 50.2283 62.7947 50.4176 63.1733 50.5236C63.567 50.6144 63.885 50.6599 64.1273 50.6599Z" fill="#DE2632"/>
</svg>
